<svg width="22" height="31" viewBox="0 0 22 31" fill="none" xmlns="http://www.w3.org/2000/svg">
<path fill-rule="evenodd" clip-rule="evenodd" d="M8.02297 12.0556C8.86231 12.7633 9.72488 13.4377 9.7757 14.6056H11.5991C11.5991 13.9671 11.5941 13.3488 11.6005 12.7306C11.6105 11.4962 12.2624 10.5644 13.1863 9.7693C13.4717 9.88842 13.7335 10.017 14.0081 10.1096C16.16 10.8335 18.9533 10.0734 20.3924 8.33294C21.9018 6.5074 22.2666 4.42535 21.8251 2.19329C21.6753 1.43257 21.3929 0.711875 20.9766 0C20.2796 0.932465 19.2949 1.39696 18.1904 1.68216C17.9168 1.75306 17.6394 1.81482 17.3621 1.87501C16.1936 2.12869 15.014 2.35086 13.9391 2.88122C12.3762 3.65328 11.5941 4.89268 11.5079 6.52284C11.4786 7.09386 11.6015 7.651 11.8976 8.18483C11.9592 8.13851 11.9999 8.11267 12.0346 8.08021C12.8608 7.31193 13.8267 6.73524 14.8788 6.28083C15.6168 5.96192 16.368 5.6679 17.104 5.34458C18.2314 4.84983 19.1946 4.16757 19.8633 3.16105C19.8812 3.13395 19.9088 3.11252 19.9323 3.08857C19.9603 3.10717 19.9889 3.12544 20.0171 3.14404C19.6829 3.6016 19.378 4.08154 19.0085 4.51327C18.2408 5.4095 17.2063 5.98933 16.1391 6.51434C14.7004 7.22274 13.3478 8.03168 12.1911 9.1236C11.3087 9.95711 10.5235 10.8436 9.9847 11.9084C9.90763 12.0603 9.83931 12.2166 9.75618 12.3959C9.6781 12.3014 9.62358 12.2349 9.56805 12.1681C8.75294 11.1823 7.84796 10.2839 6.71077 9.61457C6.10802 9.25974 5.49719 8.91593 4.8914 8.56582C4.17759 8.15363 3.51055 7.68724 2.95895 7.08944C2.50563 6.59879 2.14115 6.05803 1.89614 5.4492C1.94864 5.47851 1.98499 5.5179 2.01326 5.5617C2.56957 6.42547 3.34161 7.07432 4.28663 7.54449C4.78068 7.78998 5.28045 8.02475 5.78729 8.24597C7.03352 8.78893 8.19562 9.44314 9.12987 10.409C9.14838 10.4279 9.179 10.4364 9.2241 10.4613C9.25977 10.3885 9.29646 10.3236 9.32372 10.2555C10.0742 8.3216 9.13559 6.04826 7.19304 5.08995C6.32105 4.66012 5.3767 4.43039 4.42596 4.21831C3.0791 3.91768 1.79215 3.52156 0.969293 2.36504C0.961888 2.35401 0.936648 2.35401 0.904339 2.34424C0.862271 2.42838 0.816837 2.51315 0.776451 2.59886C0.348028 3.50454 0.0905705 4.45245 0.0232613 5.44006C-0.111694 7.41623 0.329518 9.24587 1.637 10.847C3.01617 12.5371 6.02321 13.2909 8.02297 12.0556ZM4.82813 29.3028C5.01054 30.1893 5.58132 30.8785 6.51086 30.8785H15.4886C16.4181 30.8785 16.9889 30.189 17.1713 29.3028L19.1812 18.0632H2.81828L4.82813 29.3028ZM19.9744 15.2796H2.02504C1.42094 15.2796 0.931263 15.7381 0.931263 16.3038C0.931263 16.8695 1.42094 17.328 2.02504 17.328H19.9744C20.5785 17.328 21.0682 16.8695 21.0682 16.3038C21.0682 15.7381 20.5785 15.2796 19.9744 15.2796Z" fill="url(#paint0_linear)"/>
<defs>
<linearGradient id="paint0_linear" x1="1.86225e-07" y1="15.3282" x2="22" y2="15.3282" gradientUnits="userSpaceOnUse">
<stop stop-color="#28CD77"/>
<stop offset="1" stop-color="#0C8283"/>
</linearGradient>
</defs>
</svg>
